<mxfile host="Electron" agent="Mozilla/5.0 (Windows NT 10.0; Win64; x64) AppleWebKit/537.36 (KHTML, like Gecko) draw.io/27.0.9 Chrome/134.0.6998.205 Electron/35.4.0 Safari/537.36" version="27.0.9">
  <diagram name="Seite-1" id="YMlRvp4VHCboZSjmHCUJ">
    <mxGraphModel dx="2864" dy="1319" grid="1" gridSize="10" guides="1" tooltips="1" connect="1" arrows="1" fold="1" page="1" pageScale="1" pageWidth="827" pageHeight="1169" math="0" shadow="0">
      <root>
        <mxCell id="0" />
        <mxCell id="1" parent="0" />
        <mxCell id="peA1cHa59COo_uJrest4-1" value="Flugtyp" style="ellipse;whiteSpace=wrap;html=1;" parent="1" vertex="1">
          <mxGeometry x="70" y="80" width="120" height="80" as="geometry" />
        </mxCell>
        <mxCell id="peA1cHa59COo_uJrest4-2" value="Flugart" style="rounded=0;whiteSpace=wrap;html=1;" parent="1" vertex="1">
          <mxGeometry x="180" y="240" width="120" height="60" as="geometry" />
        </mxCell>
        <mxCell id="peA1cHa59COo_uJrest4-3" value="Id" style="ellipse;whiteSpace=wrap;html=1;fontStyle=4" parent="1" vertex="1">
          <mxGeometry x="-30" y="150" width="120" height="80" as="geometry" />
        </mxCell>
        <mxCell id="peA1cHa59COo_uJrest4-4" value="" style="endArrow=none;html=1;rounded=0;" parent="1" source="peA1cHa59COo_uJrest4-3" target="peA1cHa59COo_uJrest4-2" edge="1">
          <mxGeometry width="50" height="50" relative="1" as="geometry">
            <mxPoint x="80" y="260" as="sourcePoint" />
            <mxPoint x="130" y="210" as="targetPoint" />
          </mxGeometry>
        </mxCell>
        <mxCell id="peA1cHa59COo_uJrest4-5" value="" style="endArrow=none;html=1;rounded=0;" parent="1" source="peA1cHa59COo_uJrest4-2" target="peA1cHa59COo_uJrest4-1" edge="1">
          <mxGeometry width="50" height="50" relative="1" as="geometry">
            <mxPoint x="340" y="150" as="sourcePoint" />
            <mxPoint x="390" y="100" as="targetPoint" />
          </mxGeometry>
        </mxCell>
        <mxCell id="peA1cHa59COo_uJrest4-6" value="Flugzeug" style="rounded=0;whiteSpace=wrap;html=1;" parent="1" vertex="1">
          <mxGeometry x="180" y="440" width="120" height="60" as="geometry" />
        </mxCell>
        <mxCell id="peA1cHa59COo_uJrest4-12" value="Id" style="ellipse;whiteSpace=wrap;html=1;fontStyle=4" parent="1" vertex="1">
          <mxGeometry x="-40" y="485" width="120" height="80" as="geometry" />
        </mxCell>
        <mxCell id="peA1cHa59COo_uJrest4-13" value="Kennzeichen" style="ellipse;whiteSpace=wrap;html=1;" parent="1" vertex="1">
          <mxGeometry x="-70" y="570" width="120" height="80" as="geometry" />
        </mxCell>
        <mxCell id="peA1cHa59COo_uJrest4-14" value="Flugzeugtyp" style="ellipse;whiteSpace=wrap;html=1;" parent="1" vertex="1">
          <mxGeometry x="60" y="565" width="120" height="80" as="geometry" />
        </mxCell>
        <mxCell id="peA1cHa59COo_uJrest4-17" value="" style="endArrow=none;html=1;rounded=0;" parent="1" source="peA1cHa59COo_uJrest4-13" target="peA1cHa59COo_uJrest4-6" edge="1">
          <mxGeometry width="50" height="50" relative="1" as="geometry">
            <mxPoint x="20" y="720" as="sourcePoint" />
            <mxPoint x="70" y="670" as="targetPoint" />
          </mxGeometry>
        </mxCell>
        <mxCell id="peA1cHa59COo_uJrest4-18" value="" style="endArrow=none;html=1;rounded=0;" parent="1" source="peA1cHa59COo_uJrest4-12" target="peA1cHa59COo_uJrest4-6" edge="1">
          <mxGeometry width="50" height="50" relative="1" as="geometry">
            <mxPoint x="-200" y="550" as="sourcePoint" />
            <mxPoint x="-150" y="500" as="targetPoint" />
          </mxGeometry>
        </mxCell>
        <mxCell id="peA1cHa59COo_uJrest4-20" value="" style="endArrow=none;html=1;rounded=0;" parent="1" source="peA1cHa59COo_uJrest4-14" target="peA1cHa59COo_uJrest4-6" edge="1">
          <mxGeometry width="50" height="50" relative="1" as="geometry">
            <mxPoint x="-170" y="330" as="sourcePoint" />
            <mxPoint x="-120" y="280" as="targetPoint" />
          </mxGeometry>
        </mxCell>
        <mxCell id="peA1cHa59COo_uJrest4-26" value="Kostenstelle" style="rounded=0;whiteSpace=wrap;html=1;" parent="1" vertex="1">
          <mxGeometry x="420" y="575" width="120" height="60" as="geometry" />
        </mxCell>
        <mxCell id="peA1cHa59COo_uJrest4-27" value="Id" style="ellipse;whiteSpace=wrap;html=1;fontStyle=4" parent="1" vertex="1">
          <mxGeometry x="240" y="680" width="120" height="80" as="geometry" />
        </mxCell>
        <mxCell id="peA1cHa59COo_uJrest4-28" value="Name" style="ellipse;whiteSpace=wrap;html=1;" parent="1" vertex="1">
          <mxGeometry x="550" y="750" width="120" height="80" as="geometry" />
        </mxCell>
        <mxCell id="peA1cHa59COo_uJrest4-29" value="Straße" style="ellipse;whiteSpace=wrap;html=1;" parent="1" vertex="1">
          <mxGeometry x="430" y="690" width="120" height="80" as="geometry" />
        </mxCell>
        <mxCell id="peA1cHa59COo_uJrest4-30" value="PLZ" style="ellipse;whiteSpace=wrap;html=1;" parent="1" vertex="1">
          <mxGeometry x="310" y="770" width="120" height="80" as="geometry" />
        </mxCell>
        <mxCell id="peA1cHa59COo_uJrest4-31" value="Ort" style="ellipse;whiteSpace=wrap;html=1;" parent="1" vertex="1">
          <mxGeometry x="570" y="660" width="120" height="80" as="geometry" />
        </mxCell>
        <mxCell id="peA1cHa59COo_uJrest4-32" value="" style="endArrow=none;html=1;rounded=0;entryX=0;entryY=0.5;entryDx=0;entryDy=0;" parent="1" source="peA1cHa59COo_uJrest4-27" target="peA1cHa59COo_uJrest4-26" edge="1">
          <mxGeometry width="50" height="50" relative="1" as="geometry">
            <mxPoint x="260" y="440" as="sourcePoint" />
            <mxPoint x="310" y="390" as="targetPoint" />
          </mxGeometry>
        </mxCell>
        <mxCell id="peA1cHa59COo_uJrest4-33" value="" style="endArrow=none;html=1;rounded=0;" parent="1" source="peA1cHa59COo_uJrest4-30" target="peA1cHa59COo_uJrest4-26" edge="1">
          <mxGeometry width="50" height="50" relative="1" as="geometry">
            <mxPoint x="170" y="850" as="sourcePoint" />
            <mxPoint x="220" y="800" as="targetPoint" />
          </mxGeometry>
        </mxCell>
        <mxCell id="peA1cHa59COo_uJrest4-34" value="" style="endArrow=none;html=1;rounded=0;" parent="1" source="peA1cHa59COo_uJrest4-28" target="peA1cHa59COo_uJrest4-26" edge="1">
          <mxGeometry width="50" height="50" relative="1" as="geometry">
            <mxPoint x="570" y="630" as="sourcePoint" />
            <mxPoint x="620" y="580" as="targetPoint" />
          </mxGeometry>
        </mxCell>
        <mxCell id="peA1cHa59COo_uJrest4-35" value="" style="endArrow=none;html=1;rounded=0;" parent="1" source="peA1cHa59COo_uJrest4-29" target="peA1cHa59COo_uJrest4-26" edge="1">
          <mxGeometry width="50" height="50" relative="1" as="geometry">
            <mxPoint x="600" y="540" as="sourcePoint" />
            <mxPoint x="650" y="490" as="targetPoint" />
          </mxGeometry>
        </mxCell>
        <mxCell id="peA1cHa59COo_uJrest4-36" value="" style="endArrow=none;html=1;rounded=0;" parent="1" source="peA1cHa59COo_uJrest4-31" target="peA1cHa59COo_uJrest4-26" edge="1">
          <mxGeometry width="50" height="50" relative="1" as="geometry">
            <mxPoint x="750" y="590" as="sourcePoint" />
            <mxPoint x="800" y="540" as="targetPoint" />
          </mxGeometry>
        </mxCell>
        <mxCell id="peA1cHa59COo_uJrest4-37" value="Benutzer" style="rounded=0;whiteSpace=wrap;html=1;" parent="1" vertex="1">
          <mxGeometry x="770" y="370" width="120" height="60" as="geometry" />
        </mxCell>
        <mxCell id="peA1cHa59COo_uJrest4-38" value="Id" style="ellipse;whiteSpace=wrap;html=1;fontStyle=4" parent="1" vertex="1">
          <mxGeometry x="977" y="310" width="120" height="80" as="geometry" />
        </mxCell>
        <mxCell id="peA1cHa59COo_uJrest4-39" value="Nachname" style="ellipse;whiteSpace=wrap;html=1;" parent="1" vertex="1">
          <mxGeometry x="870" y="260" width="120" height="80" as="geometry" />
        </mxCell>
        <mxCell id="peA1cHa59COo_uJrest4-40" value="Vorname" style="ellipse;whiteSpace=wrap;html=1;" parent="1" vertex="1">
          <mxGeometry x="730" y="260" width="120" height="80" as="geometry" />
        </mxCell>
        <mxCell id="peA1cHa59COo_uJrest4-43" value="" style="endArrow=none;html=1;rounded=0;" parent="1" source="peA1cHa59COo_uJrest4-37" target="peA1cHa59COo_uJrest4-40" edge="1">
          <mxGeometry width="50" height="50" relative="1" as="geometry">
            <mxPoint x="650" y="480" as="sourcePoint" />
            <mxPoint x="700" y="430" as="targetPoint" />
          </mxGeometry>
        </mxCell>
        <mxCell id="peA1cHa59COo_uJrest4-44" value="" style="endArrow=none;html=1;rounded=0;" parent="1" source="peA1cHa59COo_uJrest4-37" target="peA1cHa59COo_uJrest4-39" edge="1">
          <mxGeometry width="50" height="50" relative="1" as="geometry">
            <mxPoint x="680" y="500" as="sourcePoint" />
            <mxPoint x="730" y="450" as="targetPoint" />
          </mxGeometry>
        </mxCell>
        <mxCell id="peA1cHa59COo_uJrest4-45" value="" style="endArrow=none;html=1;rounded=0;" parent="1" source="peA1cHa59COo_uJrest4-37" target="peA1cHa59COo_uJrest4-38" edge="1">
          <mxGeometry width="50" height="50" relative="1" as="geometry">
            <mxPoint x="820" y="510" as="sourcePoint" />
            <mxPoint x="870" y="460" as="targetPoint" />
          </mxGeometry>
        </mxCell>
        <mxCell id="peA1cHa59COo_uJrest4-46" value="zuständig für" style="rhombus;whiteSpace=wrap;html=1;" parent="1" vertex="1">
          <mxGeometry x="295" y="495" width="155" height="80" as="geometry" />
        </mxCell>
        <mxCell id="peA1cHa59COo_uJrest4-47" value="" style="endArrow=none;html=1;rounded=0;" parent="1" source="peA1cHa59COo_uJrest4-26" target="peA1cHa59COo_uJrest4-46" edge="1">
          <mxGeometry width="50" height="50" relative="1" as="geometry">
            <mxPoint x="500" y="400" as="sourcePoint" />
            <mxPoint x="550" y="350" as="targetPoint" />
          </mxGeometry>
        </mxCell>
        <mxCell id="peA1cHa59COo_uJrest4-48" value="[1..1]" style="text;html=1;align=center;verticalAlign=middle;whiteSpace=wrap;rounded=0;" parent="1" vertex="1">
          <mxGeometry x="414" y="545" width="60" height="30" as="geometry" />
        </mxCell>
        <mxCell id="peA1cHa59COo_uJrest4-49" value="" style="endArrow=none;html=1;rounded=0;" parent="1" source="peA1cHa59COo_uJrest4-6" target="peA1cHa59COo_uJrest4-46" edge="1">
          <mxGeometry width="50" height="50" relative="1" as="geometry">
            <mxPoint x="430" y="410" as="sourcePoint" />
            <mxPoint x="480" y="360" as="targetPoint" />
          </mxGeometry>
        </mxCell>
        <mxCell id="peA1cHa59COo_uJrest4-50" value="[0..*]" style="text;html=1;align=center;verticalAlign=middle;whiteSpace=wrap;rounded=0;" parent="1" vertex="1">
          <mxGeometry x="300" y="470" width="60" height="30" as="geometry" />
        </mxCell>
        <mxCell id="peA1cHa59COo_uJrest4-51" value="[0..*]" style="text;html=1;align=center;verticalAlign=middle;whiteSpace=wrap;rounded=0;" parent="1" vertex="1">
          <mxGeometry x="720" y="420" width="60" height="30" as="geometry" />
        </mxCell>
        <mxCell id="peA1cHa59COo_uJrest4-54" value="" style="endArrow=none;html=1;rounded=0;" parent="1" source="peA1cHa59COo_uJrest4-6" target="peA1cHa59COo_uJrest4-97" edge="1">
          <mxGeometry width="50" height="50" relative="1" as="geometry">
            <mxPoint x="390" y="410" as="sourcePoint" />
            <mxPoint x="487.6230425055928" y="349.4183445190156" as="targetPoint" />
          </mxGeometry>
        </mxCell>
        <mxCell id="peA1cHa59COo_uJrest4-55" value="" style="endArrow=none;html=1;rounded=0;" parent="1" source="peA1cHa59COo_uJrest4-37" target="peA1cHa59COo_uJrest4-95" edge="1">
          <mxGeometry width="50" height="50" relative="1" as="geometry">
            <mxPoint x="540" y="410" as="sourcePoint" />
            <mxPoint x="650" y="390" as="targetPoint" />
          </mxGeometry>
        </mxCell>
        <mxCell id="peA1cHa59COo_uJrest4-56" value="[1..1]" style="text;html=1;align=center;verticalAlign=middle;whiteSpace=wrap;rounded=0;" parent="1" vertex="1">
          <mxGeometry x="260" y="405" width="60" height="30" as="geometry" />
        </mxCell>
        <mxCell id="peA1cHa59COo_uJrest4-57" value="[1..2]" style="text;html=1;align=center;verticalAlign=middle;whiteSpace=wrap;rounded=0;" parent="1" vertex="1">
          <mxGeometry x="720" y="350" width="60" height="30" as="geometry" />
        </mxCell>
        <mxCell id="peA1cHa59COo_uJrest4-58" value="bezahlt" style="ellipse;whiteSpace=wrap;html=1;" parent="1" vertex="1">
          <mxGeometry x="510" y="40" width="120" height="80" as="geometry" />
        </mxCell>
        <mxCell id="peA1cHa59COo_uJrest4-59" value="Startzeit" style="ellipse;whiteSpace=wrap;html=1;" parent="1" vertex="1">
          <mxGeometry x="640" y="50" width="120" height="80" as="geometry" />
        </mxCell>
        <mxCell id="peA1cHa59COo_uJrest4-60" value="Landezeit" style="ellipse;whiteSpace=wrap;html=1;" parent="1" vertex="1">
          <mxGeometry x="380" y="40" width="120" height="80" as="geometry" />
        </mxCell>
        <mxCell id="peA1cHa59COo_uJrest4-61" value="Tarif" style="ellipse;whiteSpace=wrap;html=1;" parent="1" vertex="1">
          <mxGeometry x="210" y="70" width="120" height="80" as="geometry" />
        </mxCell>
        <mxCell id="peA1cHa59COo_uJrest4-62" value="" style="endArrow=none;html=1;rounded=0;" parent="1" source="peA1cHa59COo_uJrest4-2" target="peA1cHa59COo_uJrest4-61" edge="1">
          <mxGeometry width="50" height="50" relative="1" as="geometry">
            <mxPoint x="230" y="350" as="sourcePoint" />
            <mxPoint x="280" y="300" as="targetPoint" />
          </mxGeometry>
        </mxCell>
        <mxCell id="peA1cHa59COo_uJrest4-63" value="" style="endArrow=none;html=1;rounded=0;" parent="1" source="peA1cHa59COo_uJrest4-2" target="peA1cHa59COo_uJrest4-100" edge="1">
          <mxGeometry width="50" height="50" relative="1" as="geometry">
            <mxPoint x="330" y="340" as="sourcePoint" />
            <mxPoint x="472.3142414860681" y="318.482972136223" as="targetPoint" />
          </mxGeometry>
        </mxCell>
        <mxCell id="peA1cHa59COo_uJrest4-65" value="Bemerkung" style="ellipse;whiteSpace=wrap;html=1;" parent="1" vertex="1">
          <mxGeometry x="770" y="60" width="120" height="80" as="geometry" />
        </mxCell>
        <mxCell id="peA1cHa59COo_uJrest4-66" value="" style="endArrow=none;html=1;rounded=0;" parent="1" source="peA1cHa59COo_uJrest4-94" target="peA1cHa59COo_uJrest4-60" edge="1">
          <mxGeometry width="50" height="50" relative="1" as="geometry">
            <mxPoint x="515.6314814580005" y="296.12568698941914" as="sourcePoint" />
            <mxPoint x="460" y="230" as="targetPoint" />
          </mxGeometry>
        </mxCell>
        <mxCell id="peA1cHa59COo_uJrest4-67" value="" style="endArrow=none;html=1;rounded=0;" parent="1" source="peA1cHa59COo_uJrest4-94" target="peA1cHa59COo_uJrest4-58" edge="1">
          <mxGeometry width="50" height="50" relative="1" as="geometry">
            <mxPoint x="533.7642642566766" y="293.23316864860726" as="sourcePoint" />
            <mxPoint x="630" y="200" as="targetPoint" />
          </mxGeometry>
        </mxCell>
        <mxCell id="peA1cHa59COo_uJrest4-68" value="" style="endArrow=none;html=1;rounded=0;" parent="1" source="peA1cHa59COo_uJrest4-94" target="peA1cHa59COo_uJrest4-59" edge="1">
          <mxGeometry width="50" height="50" relative="1" as="geometry">
            <mxPoint x="548.4784348592548" y="300.827579282196" as="sourcePoint" />
            <mxPoint x="660" y="220" as="targetPoint" />
          </mxGeometry>
        </mxCell>
        <mxCell id="peA1cHa59COo_uJrest4-69" value="" style="endArrow=none;html=1;rounded=0;" parent="1" source="peA1cHa59COo_uJrest4-94" target="peA1cHa59COo_uJrest4-65" edge="1">
          <mxGeometry width="50" height="50" relative="1" as="geometry">
            <mxPoint x="558.8413197899076" y="306.1761650528556" as="sourcePoint" />
            <mxPoint x="710" y="250" as="targetPoint" />
          </mxGeometry>
        </mxCell>
        <mxCell id="peA1cHa59COo_uJrest4-70" value="Startort" style="ellipse;whiteSpace=wrap;html=1;" parent="1" vertex="1">
          <mxGeometry x="912.5" y="70" width="120" height="80" as="geometry" />
        </mxCell>
        <mxCell id="peA1cHa59COo_uJrest4-71" value="Zielort" style="ellipse;whiteSpace=wrap;html=1;" parent="1" vertex="1">
          <mxGeometry x="330" y="140" width="120" height="80" as="geometry" />
        </mxCell>
        <mxCell id="peA1cHa59COo_uJrest4-72" value="" style="endArrow=none;html=1;rounded=0;" parent="1" source="peA1cHa59COo_uJrest4-71" target="peA1cHa59COo_uJrest4-94" edge="1">
          <mxGeometry width="50" height="50" relative="1" as="geometry">
            <mxPoint x="310" y="360" as="sourcePoint" />
            <mxPoint x="502.6094890510949" y="302.8467153284671" as="targetPoint" />
          </mxGeometry>
        </mxCell>
        <mxCell id="peA1cHa59COo_uJrest4-73" value="" style="endArrow=none;html=1;rounded=0;" parent="1" source="peA1cHa59COo_uJrest4-94" target="peA1cHa59COo_uJrest4-70" edge="1">
          <mxGeometry width="50" height="50" relative="1" as="geometry">
            <mxPoint x="570.3107013072063" y="312.09584583597734" as="sourcePoint" />
            <mxPoint x="990" y="160" as="targetPoint" />
          </mxGeometry>
        </mxCell>
        <mxCell id="peA1cHa59COo_uJrest4-76" value="Rolle" style="rounded=0;whiteSpace=wrap;html=1;" parent="1" vertex="1">
          <mxGeometry x="827" y="595" width="120" height="60" as="geometry" />
        </mxCell>
        <mxCell id="peA1cHa59COo_uJrest4-77" value="Id" style="ellipse;whiteSpace=wrap;html=1;fontStyle=4" parent="1" vertex="1">
          <mxGeometry x="970" y="620" width="120" height="80" as="geometry" />
        </mxCell>
        <mxCell id="peA1cHa59COo_uJrest4-78" value="Rollentyp" style="ellipse;whiteSpace=wrap;html=1;" parent="1" vertex="1">
          <mxGeometry x="834" y="680" width="120" height="80" as="geometry" />
        </mxCell>
        <mxCell id="peA1cHa59COo_uJrest4-79" value="" style="endArrow=none;html=1;rounded=0;" parent="1" source="peA1cHa59COo_uJrest4-78" target="peA1cHa59COo_uJrest4-76" edge="1">
          <mxGeometry width="50" height="50" relative="1" as="geometry">
            <mxPoint x="697" y="585" as="sourcePoint" />
            <mxPoint x="747" y="535" as="targetPoint" />
          </mxGeometry>
        </mxCell>
        <mxCell id="peA1cHa59COo_uJrest4-80" value="" style="endArrow=none;html=1;rounded=0;" parent="1" source="peA1cHa59COo_uJrest4-77" target="peA1cHa59COo_uJrest4-76" edge="1">
          <mxGeometry width="50" height="50" relative="1" as="geometry">
            <mxPoint x="1017" y="585" as="sourcePoint" />
            <mxPoint x="1067" y="535" as="targetPoint" />
          </mxGeometry>
        </mxCell>
        <mxCell id="peA1cHa59COo_uJrest4-81" value="ist" style="rhombus;whiteSpace=wrap;html=1;" parent="1" vertex="1">
          <mxGeometry x="775" y="470" width="155" height="80" as="geometry" />
        </mxCell>
        <mxCell id="peA1cHa59COo_uJrest4-82" value="" style="endArrow=none;html=1;rounded=0;" parent="1" source="peA1cHa59COo_uJrest4-37" target="peA1cHa59COo_uJrest4-81" edge="1">
          <mxGeometry width="50" height="50" relative="1" as="geometry">
            <mxPoint x="680" y="560" as="sourcePoint" />
            <mxPoint x="730" y="510" as="targetPoint" />
          </mxGeometry>
        </mxCell>
        <mxCell id="peA1cHa59COo_uJrest4-83" value="" style="endArrow=none;html=1;rounded=0;" parent="1" source="peA1cHa59COo_uJrest4-76" target="peA1cHa59COo_uJrest4-81" edge="1">
          <mxGeometry width="50" height="50" relative="1" as="geometry">
            <mxPoint x="720" y="570" as="sourcePoint" />
            <mxPoint x="770" y="520" as="targetPoint" />
          </mxGeometry>
        </mxCell>
        <mxCell id="peA1cHa59COo_uJrest4-84" value="[1..*]" style="text;html=1;align=center;verticalAlign=middle;whiteSpace=wrap;rounded=0;" parent="1" vertex="1">
          <mxGeometry x="864" y="570" width="60" height="30" as="geometry" />
        </mxCell>
        <mxCell id="peA1cHa59COo_uJrest4-85" value="[1..*]" style="text;html=1;align=center;verticalAlign=middle;whiteSpace=wrap;rounded=0;" parent="1" vertex="1">
          <mxGeometry x="827" y="430" width="60" height="30" as="geometry" />
        </mxCell>
        <mxCell id="peA1cHa59COo_uJrest4-86" value="zuständig für" style="rhombus;whiteSpace=wrap;html=1;" parent="1" vertex="1">
          <mxGeometry x="565" y="470" width="155" height="80" as="geometry" />
        </mxCell>
        <mxCell id="peA1cHa59COo_uJrest4-87" value="" style="endArrow=none;html=1;rounded=0;" parent="1" source="peA1cHa59COo_uJrest4-26" target="peA1cHa59COo_uJrest4-86" edge="1">
          <mxGeometry width="50" height="50" relative="1" as="geometry">
            <mxPoint x="520" y="470" as="sourcePoint" />
            <mxPoint x="570" y="420" as="targetPoint" />
          </mxGeometry>
        </mxCell>
        <mxCell id="peA1cHa59COo_uJrest4-88" value="[1..1]" style="text;html=1;align=center;verticalAlign=middle;whiteSpace=wrap;rounded=0;" parent="1" vertex="1">
          <mxGeometry x="497.5" y="540" width="60" height="30" as="geometry" />
        </mxCell>
        <mxCell id="peA1cHa59COo_uJrest4-89" value="" style="endArrow=none;html=1;rounded=0;" parent="1" source="peA1cHa59COo_uJrest4-86" target="peA1cHa59COo_uJrest4-37" edge="1">
          <mxGeometry width="50" height="50" relative="1" as="geometry">
            <mxPoint x="560" y="470" as="sourcePoint" />
            <mxPoint x="610" y="420" as="targetPoint" />
          </mxGeometry>
        </mxCell>
        <mxCell id="peA1cHa59COo_uJrest4-93" value="Wartung" style="rounded=0;whiteSpace=wrap;html=1;" parent="1" vertex="1">
          <mxGeometry x="-150" y="320" width="120" height="60" as="geometry" />
        </mxCell>
        <mxCell id="peA1cHa59COo_uJrest4-94" value="Flug" style="rounded=0;whiteSpace=wrap;html=1;" parent="1" vertex="1">
          <mxGeometry x="550" y="220" width="120" height="60" as="geometry" />
        </mxCell>
        <mxCell id="peA1cHa59COo_uJrest4-95" value="fliegt" style="rhombus;whiteSpace=wrap;html=1;" parent="1" vertex="1">
          <mxGeometry x="575" y="320" width="155" height="80" as="geometry" />
        </mxCell>
        <mxCell id="peA1cHa59COo_uJrest4-96" value="" style="endArrow=none;html=1;rounded=0;" parent="1" source="peA1cHa59COo_uJrest4-95" target="peA1cHa59COo_uJrest4-94" edge="1">
          <mxGeometry width="50" height="50" relative="1" as="geometry">
            <mxPoint x="540" y="330" as="sourcePoint" />
            <mxPoint x="590" y="280" as="targetPoint" />
          </mxGeometry>
        </mxCell>
        <mxCell id="peA1cHa59COo_uJrest4-97" value="verwendet" style="rhombus;whiteSpace=wrap;html=1;" parent="1" vertex="1">
          <mxGeometry x="355" y="340" width="155" height="80" as="geometry" />
        </mxCell>
        <mxCell id="peA1cHa59COo_uJrest4-98" value="[1..*]" style="text;html=1;align=center;verticalAlign=middle;whiteSpace=wrap;rounded=0;" parent="1" vertex="1">
          <mxGeometry x="550" y="275" width="60" height="30" as="geometry" />
        </mxCell>
        <mxCell id="peA1cHa59COo_uJrest4-99" value="" style="endArrow=none;html=1;rounded=0;" parent="1" source="peA1cHa59COo_uJrest4-97" target="peA1cHa59COo_uJrest4-94" edge="1">
          <mxGeometry width="50" height="50" relative="1" as="geometry">
            <mxPoint x="510" y="450" as="sourcePoint" />
            <mxPoint x="560" y="400" as="targetPoint" />
          </mxGeometry>
        </mxCell>
        <mxCell id="peA1cHa59COo_uJrest4-100" value="hat" style="rhombus;whiteSpace=wrap;html=1;" parent="1" vertex="1">
          <mxGeometry x="342.5" y="240" width="155" height="80" as="geometry" />
        </mxCell>
        <mxCell id="peA1cHa59COo_uJrest4-101" value="" style="endArrow=none;html=1;rounded=0;" parent="1" source="peA1cHa59COo_uJrest4-100" target="peA1cHa59COo_uJrest4-94" edge="1">
          <mxGeometry width="50" height="50" relative="1" as="geometry">
            <mxPoint x="260" y="380" as="sourcePoint" />
            <mxPoint x="310" y="330" as="targetPoint" />
          </mxGeometry>
        </mxCell>
        <mxCell id="peA1cHa59COo_uJrest4-102" value="[1..1]" style="text;html=1;align=center;verticalAlign=middle;whiteSpace=wrap;rounded=0;" parent="1" vertex="1">
          <mxGeometry x="290" y="250" width="60" height="30" as="geometry" />
        </mxCell>
        <mxCell id="peA1cHa59COo_uJrest4-103" value="[1..*]" style="text;html=1;align=center;verticalAlign=middle;whiteSpace=wrap;rounded=0;" parent="1" vertex="1">
          <mxGeometry x="505" y="235" width="60" height="30" as="geometry" />
        </mxCell>
        <mxCell id="peA1cHa59COo_uJrest4-104" value="hat" style="rhombus;whiteSpace=wrap;html=1;" parent="1" vertex="1">
          <mxGeometry x="-10" y="370" width="155" height="80" as="geometry" />
        </mxCell>
        <mxCell id="peA1cHa59COo_uJrest4-105" value="" style="endArrow=none;html=1;rounded=0;" parent="1" source="peA1cHa59COo_uJrest4-104" target="peA1cHa59COo_uJrest4-93" edge="1">
          <mxGeometry width="50" height="50" relative="1" as="geometry">
            <mxPoint x="-180" y="470" as="sourcePoint" />
            <mxPoint x="-130" y="420" as="targetPoint" />
          </mxGeometry>
        </mxCell>
        <mxCell id="peA1cHa59COo_uJrest4-106" value="" style="endArrow=none;html=1;rounded=0;" parent="1" source="peA1cHa59COo_uJrest4-104" target="peA1cHa59COo_uJrest4-6" edge="1">
          <mxGeometry width="50" height="50" relative="1" as="geometry">
            <mxPoint x="-140" y="480" as="sourcePoint" />
            <mxPoint x="-90" y="430" as="targetPoint" />
          </mxGeometry>
        </mxCell>
        <mxCell id="peA1cHa59COo_uJrest4-107" value="[1..*]" style="text;html=1;align=center;verticalAlign=middle;whiteSpace=wrap;rounded=0;" parent="1" vertex="1">
          <mxGeometry x="140" y="410" width="60" height="30" as="geometry" />
        </mxCell>
        <mxCell id="peA1cHa59COo_uJrest4-108" value="[0..*]" style="text;html=1;align=center;verticalAlign=middle;whiteSpace=wrap;rounded=0;" parent="1" vertex="1">
          <mxGeometry x="-40" y="340" width="60" height="30" as="geometry" />
        </mxCell>
        <mxCell id="peA1cHa59COo_uJrest4-109" value="Id" style="ellipse;whiteSpace=wrap;html=1;fontStyle=4" parent="1" vertex="1">
          <mxGeometry x="-260" y="225" width="120" height="80" as="geometry" />
        </mxCell>
        <mxCell id="peA1cHa59COo_uJrest4-110" value="Datum" style="ellipse;whiteSpace=wrap;html=1;" parent="1" vertex="1">
          <mxGeometry x="-220" y="410" width="120" height="80" as="geometry" />
        </mxCell>
        <mxCell id="peA1cHa59COo_uJrest4-111" value="Bemerkung" style="ellipse;whiteSpace=wrap;html=1;" parent="1" vertex="1">
          <mxGeometry x="-290" y="325" width="120" height="80" as="geometry" />
        </mxCell>
        <mxCell id="peA1cHa59COo_uJrest4-112" value="" style="endArrow=none;html=1;rounded=0;" parent="1" source="peA1cHa59COo_uJrest4-111" target="peA1cHa59COo_uJrest4-93" edge="1">
          <mxGeometry width="50" height="50" relative="1" as="geometry">
            <mxPoint x="-180" y="490" as="sourcePoint" />
            <mxPoint x="-130" y="440" as="targetPoint" />
          </mxGeometry>
        </mxCell>
        <mxCell id="peA1cHa59COo_uJrest4-113" value="" style="endArrow=none;html=1;rounded=0;" parent="1" source="peA1cHa59COo_uJrest4-109" target="peA1cHa59COo_uJrest4-93" edge="1">
          <mxGeometry width="50" height="50" relative="1" as="geometry">
            <mxPoint x="-200" y="460" as="sourcePoint" />
            <mxPoint x="-150" y="410" as="targetPoint" />
          </mxGeometry>
        </mxCell>
        <mxCell id="peA1cHa59COo_uJrest4-114" value="" style="endArrow=none;html=1;rounded=0;" parent="1" source="peA1cHa59COo_uJrest4-93" target="peA1cHa59COo_uJrest4-110" edge="1">
          <mxGeometry width="50" height="50" relative="1" as="geometry">
            <mxPoint x="80" y="340" as="sourcePoint" />
            <mxPoint x="130" y="290" as="targetPoint" />
          </mxGeometry>
        </mxCell>
        <mxCell id="peA1cHa59COo_uJrest4-115" value="[1..*]" style="text;html=1;align=center;verticalAlign=middle;whiteSpace=wrap;rounded=0;" parent="1" vertex="1">
          <mxGeometry x="612.5" y="275" width="60" height="30" as="geometry" />
        </mxCell>
        <mxCell id="vmF1_-FJys3U0_ZO66zo-1" value="Kosten" style="ellipse;whiteSpace=wrap;html=1;" parent="1" vertex="1">
          <mxGeometry x="-130" y="220" width="120" height="80" as="geometry" />
        </mxCell>
        <mxCell id="vmF1_-FJys3U0_ZO66zo-2" value="" style="endArrow=none;html=1;rounded=0;" parent="1" source="vmF1_-FJys3U0_ZO66zo-1" target="peA1cHa59COo_uJrest4-93" edge="1">
          <mxGeometry width="50" height="50" relative="1" as="geometry">
            <mxPoint x="-180" y="610" as="sourcePoint" />
            <mxPoint x="-130" y="560" as="targetPoint" />
          </mxGeometry>
        </mxCell>
        <mxCell id="vmF1_-FJys3U0_ZO66zo-3" value="Passwort" style="ellipse;whiteSpace=wrap;html=1;" parent="1" vertex="1">
          <mxGeometry x="1070" y="380" width="120" height="80" as="geometry" />
        </mxCell>
        <mxCell id="vmF1_-FJys3U0_ZO66zo-4" value="" style="endArrow=none;html=1;rounded=0;" parent="1" source="peA1cHa59COo_uJrest4-37" target="vmF1_-FJys3U0_ZO66zo-3" edge="1">
          <mxGeometry width="50" height="50" relative="1" as="geometry">
            <mxPoint x="1030" y="530" as="sourcePoint" />
            <mxPoint x="1080" y="480" as="targetPoint" />
          </mxGeometry>
        </mxCell>
        <mxCell id="vmF1_-FJys3U0_ZO66zo-5" value="Email" style="ellipse;whiteSpace=wrap;html=1;" parent="1" vertex="1">
          <mxGeometry x="947" y="420" width="120" height="80" as="geometry" />
        </mxCell>
        <mxCell id="vmF1_-FJys3U0_ZO66zo-6" value="" style="endArrow=none;html=1;rounded=0;" parent="1" source="peA1cHa59COo_uJrest4-37" target="vmF1_-FJys3U0_ZO66zo-5" edge="1">
          <mxGeometry width="50" height="50" relative="1" as="geometry">
            <mxPoint x="1070" y="550" as="sourcePoint" />
            <mxPoint x="1120" y="500" as="targetPoint" />
          </mxGeometry>
        </mxCell>
        <mxCell id="vmF1_-FJys3U0_ZO66zo-9" value="Id" style="ellipse;whiteSpace=wrap;html=1;fontStyle=4" parent="1" vertex="1">
          <mxGeometry x="850" y="150" width="120" height="80" as="geometry" />
        </mxCell>
        <mxCell id="vmF1_-FJys3U0_ZO66zo-10" value="" style="endArrow=none;html=1;rounded=0;" parent="1" source="vmF1_-FJys3U0_ZO66zo-9" target="peA1cHa59COo_uJrest4-94" edge="1">
          <mxGeometry width="50" height="50" relative="1" as="geometry">
            <mxPoint x="980" y="160" as="sourcePoint" />
            <mxPoint x="1030" y="110" as="targetPoint" />
          </mxGeometry>
        </mxCell>
        <mxCell id="vmF1_-FJys3U0_ZO66zo-11" value="Zählerstand" style="ellipse;whiteSpace=wrap;html=1;" parent="1" vertex="1">
          <mxGeometry x="100" y="645" width="120" height="80" as="geometry" />
        </mxCell>
        <mxCell id="vmF1_-FJys3U0_ZO66zo-12" value="" style="endArrow=none;html=1;rounded=0;" parent="1" source="vmF1_-FJys3U0_ZO66zo-11" target="peA1cHa59COo_uJrest4-6" edge="1">
          <mxGeometry width="50" height="50" relative="1" as="geometry">
            <mxPoint x="10" y="680" as="sourcePoint" />
            <mxPoint x="60" y="630" as="targetPoint" />
          </mxGeometry>
        </mxCell>
        <mxCell id="oKezhVb2iY93yALDKkJJ-1" value="Freigeschaltet" style="ellipse;whiteSpace=wrap;html=1;" parent="1" vertex="1">
          <mxGeometry x="200" y="585" width="120" height="80" as="geometry" />
        </mxCell>
        <mxCell id="oKezhVb2iY93yALDKkJJ-2" value="" style="endArrow=none;html=1;rounded=0;" parent="1" source="peA1cHa59COo_uJrest4-6" target="oKezhVb2iY93yALDKkJJ-1" edge="1">
          <mxGeometry width="50" height="50" relative="1" as="geometry">
            <mxPoint x="40" y="830" as="sourcePoint" />
            <mxPoint x="90" y="780" as="targetPoint" />
          </mxGeometry>
        </mxCell>
        <mxCell id="EmIgLCWyNkpCviJiB-CK-1" value="Werkstatt" style="ellipse;whiteSpace=wrap;html=1;" vertex="1" parent="1">
          <mxGeometry x="-10" y="260" width="120" height="80" as="geometry" />
        </mxCell>
        <mxCell id="EmIgLCWyNkpCviJiB-CK-2" value="" style="endArrow=none;html=1;rounded=0;" edge="1" parent="1" source="peA1cHa59COo_uJrest4-93" target="EmIgLCWyNkpCviJiB-CK-1">
          <mxGeometry width="50" height="50" relative="1" as="geometry">
            <mxPoint x="-260" y="540" as="sourcePoint" />
            <mxPoint x="-210" y="490" as="targetPoint" />
          </mxGeometry>
        </mxCell>
      </root>
    </mxGraphModel>
  </diagram>
</mxfile>
